<svg xmlns="http://www.w3.org/2000/svg" viewBox="0 0 575.87 206.7"><defs><linearGradient id="linear-gradient" x1="497.64" y1="176.72" x2="497.64" y2="355.39" gradientUnits="userSpaceOnUse"><stop offset="0" stop-color="#62c1f7"/><stop offset="1" stop-color="#2e61a3"/></linearGradient><style>.cls-7,.cls-9{fill:none}.cls-3,.cls-6,.cls-7,.cls-8,.cls-9{stroke:#000}.cls-3,.cls-6,.cls-7,.cls-8{stroke-width:2.5px}.cls-3{fill:#ff0409}.cls-6{fill:#fff}.cls-8{fill:#af6528}.cls-9{stroke-width:1.5px}</style></defs><g id="Layer_8_copy" data-name="Layer 8 copy"><path d="M437.08 328.92c-1.54 4.34-5.66 8.75-5.66 8.75h56.91V314.08s-6.67 6.59-14.94 6.59c-17.56 0-18.64-13.59-18.64-15.42V270s13.08 0 22.36 10V254.89c-8.23 9.32-22.36 8.67-22.36 8.67V230c0-1.25 1.71-15.18 18.64-15.18 9 0 14.94 6.72 14.94 6.72V200.44H431.42l5.66 5.56C440 211.58 440.51 313.74 437.08 328.92ZM673.78 246.67c.8-2.89.53-10.56.25-15.09.06-8-14-12.58-15.27-.8v75.78c1.18 10.82 14 7.52 14.62-1.63.55-5.74 1.14-13.72.4-18.15a27.11 27.11 0 0 0-5.28-5.27h25.06v32.57c0 32.59-54.42 33.09-54.42 0V225.75c0-32.25 54.42-32.75 54.42 0v26.53H671.33A26.53 26.53 0 0 0 673.78 246.67Z" transform="translate(-201.1 -173.72)"/><path d="M769.68,345.85H737.9a107.76,107.76,0,0,0,6.32-11l.27.26c-.07-.14-.14-.26-.2-.39s.09-.19.13-.28c2,.78,3.93,1.44,5.69,2-.53,1.35-1.37,3.63-1.37,3.63l15.2-3.39-11.2-9.78-.63,4.71s-1.93-1.07-5-3.13c.8-1.88,1.54-3.73,2.19-5.51l.5.34c-.12-.22-.26-.42-.39-.63,1.18-3.25,2.13-6.3,2.85-9a47,47,0,0,0,1.83-10.65c0-.25,0-.48,0-.69l.93,1.72-.07,0,.07,0,3.35,6.24,2.22-3.44,2.5,2.82,1.61-4.21,4.95.05s-3.11-3.84-4.41-5.46l.42-.23-.46.18c-.86-7.86-7.05-17.16-9.89-18.15a6.94,6.94,0,0,0-5.05.28,4.62,4.62,0,0,0-2.08,3.53,14.28,14.28,0,0,1,1.56-4.88c5.86.84,12.17-3.18,12.17-13.71,0-18.17-19-16.75-21.66-4h-5.22v-9.67h-6.67V263H712.14c0-36.11,40.25-55.58,40.25-55.58l1.61,5.07,9.81-11.07L748,196.67l2,4.75C733.51,206,695.89,222.33,695.89,267c0,33.52,19.94,52.54,37.84,62.39a88.16,88.16,0,0,1-10.29,16.46h-83.8c-.9-.56-1.79-1.09-2.66-1.61l-.12-.07a56.08,56.08,0,0,0-6.63-3.41l-.07,0c-.48-.2-.95-.39-1.42-.55h-5.91l-7.46,0a34.81,34.81,0,0,0-6.12,3.78,44.24,44.24,0,0,1,9.06,1.58c0,.11,0,.22-.06.33l.16-.29c.18.06.35.12.51.19l.26.1H557.33c-5.17-3.11-10.27-6-14.05-6.79-12.53-3.19-17.95,6.79-17.95,6.79H467.78c-5.37-3.43-10.87-6.79-15.15-7.74a21.84,21.84,0,0,0-20.13,7.33,30.36,30.36,0,0,1,9.4.41H385.64a9.47,9.47,0,0,0,2.14-8.18h12.64a84.49,84.49,0,0,1-2.09-9c-.76-7.37.37-16.42,1.17-20.71,3,8.54,10.17,29.71,10.17,29.71h21.75a33.35,33.35,0,0,1-3.5-8.75c-1.59-10.46-1.54-107,1-122.92a17.84,17.84,0,0,1,2.5-5.56h-24.5s.75,18.62-2.48,28c-3.17-10.27-5.26-26.27-5.4-28H388c0-4.82-3.51-9.79-11.12-9.67a13.47,13.47,0,0,0-.53-4.51H769.68c5.81,0,5.63-9.54,0-9.54H225.6c-2.66,0-4.08,2.13-4.25,4.37-2.57,1.77-4.39,5-4.21,9.68-17.55-.28-13.48,26.54,6.29,16.15l15.14,14.82q1.69-1.87,3.46-3.72c2.1-2.22,4.3-4.39,6.56-6.53L233.43,196.7c2.11-4.24,2.54-7.73,1.95-10.44H358.62c-.59,2.71-.16,6.2,1.95,10.44l-15.16,14.79q5.28,5,10,10.25l15.14-14.82a20.21,20.21,0,0,0,6.65,2.28c1.25,9.68,1.36,32.85,1,56.28-1.94-.72-3.94-1.42-6-2.1a75.6,75.6,0,0,0-150.63,0c-3.78,1.28-7.51,2.64-10.83,4,3.52.84,7.09,1.57,10.54,2.21,0,.12,0,.23,0,.35A75.31,75.31,0,0,0,242,321.94a76.16,76.16,0,0,0,17.15,13.55c-1.78,1.48-3.52,2.95-5.17,4.39l-.13.12c-2.37,2.06-4.57,4-6.53,5.85h-12.8a25.15,25.15,0,0,0-1.08-2.55l15.16-14.79q-3.42-3.22-6.6-6.57c-1.17-1.22-2.31-2.44-3.42-3.68l-15.14,14.82c-19.77-10.39-23.84,16.43-6.29,16.15-.5,13,14.17,14.45,17.72,6.16H235a8.08,8.08,0,0,1-1.69,2.79l-.06-.14,0,.18c-1.31,1.32-2.9,1.69-4.74,2.25-2,2-3.55,3.82-3.55,3.82l4.63.27-.15,6.75,3.52-1.53.54,3,3.46-2,.61,3,2.45-1.41,2.48,2.28,1.46-2.45,3,1.22s-1.05-3.53-2.54-7.56c1.51-1.71,3.06-3.37,4.63-5l.14-.14q2.72-2.78,5.51-5.36H350.3c4.67,2.49,9.44,4.87,14.14,6.94,7,3.06,12.55,4.48,16.93,4.83h.13c15.77,1.2,16.33-11.59,16.33-11.59s-3.46.05-8-.15c0,0,0,0,0,0H459.2l4.29,2.47.21.12c2.37,1.35,4.78,2.69,7.14,3.94l0,0A114.62,114.62,0,0,0,481.41,367l.26.1a20.3,20.3,0,0,0,6.6,1.71c10.51.48,17.12-13.33,17.12-13.33s-5.74.17-11.84-.08h55.67c2.2,1.29,4.53,2.65,6.91,4l.21.12c2.37,1.35,4.78,2.69,7.13,3.94h0a112.07,112.07,0,0,0,10.55,5l.26.11a20.31,20.31,0,0,0,6.59,1.71c10.51.47,17.12-13.92,17.12-13.92s-6.89.48-13.6.28h-.25a49.88,49.88,0,0,1-8.2-.82,12.4,12.4,0,0,1-1.61-.48H634.3l2.54,1.94.22.17c1.41,1.07,2.85,2.15,4.35,3.25l0,0c9,6.55,19.73,13.18,33.36,15.64h.05a62.93,62.93,0,0,0,10.33,1c1.79,0,3.54-.06,5.25-.2h0a54.82,54.82,0,0,0,11.89-2.32l.13,0a56.22,56.22,0,0,0,14.61-7.15l.14-.1a68.56,68.56,0,0,0,11.24-9.68l.16-.18c.72-.78,1.43-1.56,2.12-2.36h38.95C775.49,355.39,775.31,345.85,769.68,345.85Zm-393-139.65c.08.28.14.58.21.92C376.82,206.79,376.75,206.48,376.68,206.2ZM265.92,345.85c2-1.6,4-3.11,5.94-4.51,1.09.39,2.2.75,3.31,1.09a22.65,22.65,0,0,0,2,3.42Zm50.92,0a23.74,23.74,0,0,0,2-3.47c2-.62,4-1.33,6-2.11,2.74,1.77,5.71,3.65,8.84,5.58Zm59-16.93c-.24.85-.51,1.61-.79,2.33a22.59,22.59,0,0,0-4.49,1.83l-15.14-14.82q-4.74,5.26-10,10.25l15.16,14.79a25.15,25.15,0,0,0-1.08,2.55h-6c-3.81-1.89-7.5-3.93-10.94-6l-.13-.07c-2.19-1.31-4.29-2.61-6.26-3.87.05-.09.11-.18.15-.27l-.27.19-.93-.61A75.56,75.56,0,0,0,372.55,270c0-.11,0-.22,0-.33,1.85-.33,3.73-.7,5.62-1.1C377.65,297.8,376.45,326.51,375.85,328.92Zm13.77,26.5-.7,0h.72Zm322.52-83.64h16.25v9.55h6.67v-9.55h5.27c.09.37.19.74.31,1.09-4,8.75-5.06,21.23,3.32,28.91a180.94,180.94,0,0,1-6.44,19.14C726.1,310.9,712.14,294.08,712.14,271.78Z" transform="translate(-201.1 -173.72)"/><path d="M538.61 200.44H504.92s3.7 3.35 5.91 5.56c2.21 14.14.36 115.06-1.55 122.92-1.5 4-5.7 8.75-5.7 8.75h29.81s-5.22-4.67-6.5-8.75V299h9.5c14.67 0 22.69-14.68 22.69-22.94V222.22C559.08 209.68 549.67 200.44 538.61 200.44Zm-11.72 86.81V214.42s17.49 1.4 17.49 10.86 0 43.5 0 51.5C544.42 286.9 526.89 287.25 526.89 287.25ZM655.78 355.39c23.22 14.69 45.29 10.24 58.22 0Z" transform="translate(-201.1 -173.72)"/></g><path d="M769.68,186.26H225.6c-5.81,0-5.63-9.54,0-9.54H769.68C775.31,176.72,775.49,186.26,769.68,186.26Zm0,159.59H225.6c-5.63,0-5.81,9.54,0,9.54H769.68C775.49,355.39,775.31,345.85,769.68,345.85ZM296.93,194.38A75.62,75.62,0,1,0,372.55,270,75.62,75.62,0,0,0,296.93,194.38Zm74.2,143.29h29.29a84.49,84.49,0,0,1-2.09-9c-.76-7.37.37-16.42,1.17-20.71,3,8.54,10.17,29.71,10.17,29.71h21.75a33.35,33.35,0,0,1-3.5-8.75c-1.59-10.46-1.54-107,1-122.92a17.84,17.84,0,0,1,2.5-5.56h-24.5s.75,18.62-2.48,28c-3.17-10.27-5.26-26.27-5.4-28H371.13s3.39,3,5.37,5.1c4,11.88.54,118.63-.65,123.38A21,21,0,0,1,371.13,337.67ZM437.08,206c3,5.58,3.43,107.74,0,122.92-1.54,4.34-5.66,8.75-5.66,8.75h56.91V314.08s-6.67,6.59-14.94,6.59c-17.56,0-18.64-13.59-18.64-15.42V270s13.08,0,22.36,10V254.89c-8.23,9.32-22.36,8.67-22.36,8.67V230c0-1.25,1.71-15.18,18.64-15.18,9,0,14.94,6.72,14.94,6.72V200.44H431.42Zm122,70.06c0,8.26-8,22.94-22.69,22.94h-9.5v29.92c1.28,4.08,6.5,8.75,6.5,8.75H503.58s4.2-4.79,5.7-8.75c1.91-7.86,3.76-108.78,1.55-122.92-2.21-2.21-5.91-5.56-5.91-5.56h33.69c11.06,0,20.47,9.24,20.47,21.78Zm-14.66.72c0-8,0-42,0-51.5s-17.49-10.86-17.49-10.86v72.83S544.42,286.9,544.42,276.78Zm94.72,37.3c0,33.09,54.42,32.59,54.42,0V281.51H668.5a27.11,27.11,0,0,1,5.28,5.27c.74,4.43.15,12.41-.4,18.15-.62,9.15-13.44,12.45-14.62,1.63V230.78c1.28-11.78,15.33-7.24,15.27.8.28,4.53.55,12.2-.25,15.09a26.53,26.53,0,0,1-2.45,5.61h22.23V225.75c0-32.75-54.42-32.25-54.42,0ZM695.89,267c0,44.67,35.42,63.58,54.22,69.39-.53,1.35-1.37,3.63-1.37,3.63l15.2-3.39-11.2-9.78-.63,4.71s-40-22-40-59.78h16.25v9.55h6.67v-9.55h5.27c2.81,12.22,21.61,13.39,21.61-4.78s-19-16.75-21.66-4h-5.22v-9.67h-6.67V263H712.14c0-36.11,40.25-55.58,40.25-55.58l1.61,5.07,9.81-11.07L748,196.67l2,4.75C733.51,206,695.89,222.33,695.89,267Z" transform="translate(-201.1 -173.72)" fill="url(#linear-gradient)" stroke-width="2.5" stroke="#000" id="Layer_4" data-name="Layer 4"/><g id="Layer_9" data-name="Layer 9"><path id="Black_Outline" data-name="Black Outline" class="cls-3" d="M601.74,337.67h40.54s-8.87-9.56-10.54-12.67-32.16-124.56-32.16-124.56H588.74S559.12,324.17,556.92,327,547,337.67,547,337.67h30.42s-6.67-8-7.83-11.67c-.24-.55-.14-2.52.16-5.32l5.78-35.9,25.06,0s11.61,42.12,9.83,44.35S601.74,337.67,601.74,337.67ZM577,274.94l10.56-44.11,11.16,44.11Z" transform="translate(-201.1 -173.72)"/></g><g id="Layer_6" data-name="Layer 6"><path d="M383.22,267.44A275.37,275.37,0,0,1,348.67,273S330.89,261,297,261s-51.67,12-51.67,12a275.37,275.37,0,0,1-34.55-5.56c14.72-6.11,37.55-11.88,37.55-11.88s10.28-35.12,48.67-35.12,48.67,35.12,48.67,35.12S368.5,261.33,383.22,267.44Z" transform="translate(-201.1 -173.72)" fill="#fc0" stroke-width="2.5" stroke="#000"/><path d="M289.1,328.6c-5.49,2.68-17.11,5.6-10.41,8.58,19.87,5.26,38.06-.36,38.06-.36l-9.59-8.53S294.59,325.92,289.1,328.6Z" transform="translate(-201.1 -173.72)" fill="#fff"/><path class="cls-6" d="M297,322.33c-40.33,0-52-36.62-51.54-52.37,0-8.07,7-9,51.54-9s51.54.89,51.54,9C349,285.71,337.33,322.33,297,322.33Z" transform="translate(-201.1 -173.72)"/><path class="cls-3" d="M345.67,255.56A287.85,287.85,0,0,0,297,251.77a287.85,287.85,0,0,0-48.67,3.79,37.56,37.56,0,0,1,3.16-7.41A326.43,326.43,0,0,1,297,244.58a323.82,323.82,0,0,1,45.51,3.6A47.46,47.46,0,0,1,345.67,255.56Z" transform="translate(-201.1 -173.72)"/><path class="cls-6" d="M320.92 324.75a68.83 68.83 0 0 1-47.84 0c1.18-2.42 3.08-6.28 3.08-6.28 6.73 2.82 16.45 3.86 20.84 3.86a56.3 56.3 0 0 0 20.84-3.86S319.74 322.33 320.92 324.75ZM320.92 335.44s-1.84 19.67-23.92 19.67-23.92-19.67-23.92-19.67 7.84 3.64 23.92 3.64S320.92 335.44 320.92 335.44Z" transform="translate(-201.1 -173.72)"/><path class="cls-7" d="M285.1,321l-3.27,6.28a67.56,67.56,0,0,0,30.34,0l-3-6.23A56.88,56.88,0,0,1,285.1,321Z" transform="translate(-201.1 -173.72)"/><path class="cls-7" d="M293.52,322.19,293,329l-2.73,9.91a104.23,104.23,0,0,0,13.46,0L301,329l-.51-6.7A43.41,43.41,0,0,1,293.52,322.19Z" transform="translate(-201.1 -173.72)"/><circle cx="73.63" cy="113.85" r="15.88"/><circle cx="118.17" cy="113.85" r="15.88"/><circle cx="96.08" cy="133.34" r="6.44"/><path class="cls-6" d="M217.14 349.23c-17.55.28-13.48-26.54 6.29-16.15l15.14-14.82q4.74 5.26 10 10.25L233.43 343.3C243.37 363.3 216.46 366.77 217.14 349.23ZM376.86 349.23c8.61.14 12-6.25 10.92-11.56H371.21a17.81 17.81 0 0 0 3.86-6.42 22.07 22.07 0 0 0-4.5 1.83l-15.14-14.82q-4.74 5.26-10 10.25l15.16 14.79C350.63 363.3 377.54 366.77 376.86 349.23ZM217.14 190.77c-17.55-.28-13.48 26.54 6.29 16.15l15.14 14.82q4.74-5.27 10-10.25L233.43 196.7C243.37 176.7 216.46 173.23 217.14 190.77ZM376.86 190.77c7.61-.12 11.16 4.85 11.12 9.67H371.13s4.38 3.3 5.37 5.1a25.71 25.71 0 0 1 .72 3.66 20 20 0 0 1-6.65-2.28l-15.14 14.82q-4.74-5.27-10-10.25l15.16-14.79C350.63 176.7 377.54 173.23 376.86 190.77Z" transform="translate(-201.1 -173.72)"/></g><g id="Layer_8" data-name="Layer 8"><path class="cls-8" d="M225,364.29s1.51-1.77,3.55-3.82c2.84-.86,5.09-1.25,6.6-5.43,1.26-.69,2.39-1,3.18-.6,3.5,1.73,8.67,19,8.67,19l-3-1.22-1.46,2.45-2.48-2.28-2.45,1.41-.61-3-3.46,2-.54-3-3.52,1.53.15-6.75Z" transform="translate(-201.1 -173.72)"/><path class="cls-8" d="M238.33 354.44S256.44 336.1 273.08 325a132.46 132.46 0 0 0 18 3.91s-26.83 14.55-46.62 37A46.67 46.67 0 0 0 238.33 354.44ZM307.56 328.39s29.52 21.86 56.88 33.94c32.48 14.17 33.39-6.75 33.39-6.75a142.74 142.74 0 0 1-19.41-1.16c-25.63-3.75-57.8-29.46-57.8-29.46C316.65 326.14 312.42 327.42 307.56 328.39ZM432.5 345.44s5.67-.72 10.08.59c4.2 1.19 36.34 22.77 45.69 22.77 10.51.48 17.12-13.33 17.12-13.33s-14.72.44-22.06-1.14-21.7-14.22-30.7-16.22A21.84 21.84 0 0 0 432.5 345.44Z" transform="translate(-201.1 -173.72)"/><path class="cls-9" d="M233.26 358a25.73 25.73 0 0 1 1.82 13.46M247 345.92s3.42 5.5 2.17 15.5M253.67 339.43s4.33 6 4 13.15M261.5 333.92A18.53 18.53 0 0 1 265.33 347M267.67 329s5.75 5.75 4.33 12.33M275.17 325a19.5 19.5 0 0 1 5.08 11.71M313.75 333.33s7.42-2.08 11.42-5.33M319.46 337.08s8.29-2.79 9.79-6.27M327.67 341.92s6.5-1.67 8.66-6.25M335.5 346.75s6.08-3 7.17-7.17M343.17 351s5.56-2.67 8.4-6.13M359.08 348.33a15.64 15.64 0 0 1-7.83 7.42M369.83 352.67a18.45 18.45 0 0 1-7 8.83M378.08 355a15.4 15.4 0 0 1-7.16 9.75M389.92 355s-1.67 8.33-8.67 12.33M450.83 338.08a27.79 27.79 0 0 0-8.5 7.59M457.92 340.58s-6.45 3.89-9.5 9.5M465.67 345.33s-4.84 5.34-9.67 7.67M475 350.67s-6.06 6.22-12 7.5M480.83 353a24.32 24.32 0 0 1-10.08 9M492.17 354.42s-4 8.62-11.25 13.2" transform="translate(-201.1 -173.72)"/><path class="cls-8" d="M525.33,345.85a56.29,56.29,0,0,1,9.89,1.71c4.19,1.2,36.34,22.78,45.68,22.78,10.51.47,17.12-13.92,17.12-13.92s-14.72,1-22-.55-23.69-14.81-32.69-16.81C530.75,335.87,525.33,345.85,525.33,345.85Z" transform="translate(-201.1 -173.72)"/><path class="cls-9" d="M543.47 339.62a27.68 27.68 0 0 0-8.5 7.58M550.55 342.12s-6.44 3.89-9.5 9.5M558.3 346.87s-4.83 5.33-9.66 7.66M567.64 352.2s-6.06 6.22-12 7.5M573.47 354.53a24.32 24.32 0 0 1-10.08 9M584.8 356s-4 8.63-11.23 13.21" transform="translate(-201.1 -173.72)"/><path class="cls-8" d="M609.25,343.94s6.56.5,9.67,1.81c14.61,4.81,32.58,31.25,66.26,31.67,51,.41,69.69-64.42,68.94-75.17a21.25,21.25,0,0,1-10.16-.47c-8.17,29.3-24.13,63.47-58.36,63.07-25.49-1.29-43.91-20.14-56.86-24.67h-5.91l-7.46,0A34.81,34.81,0,0,0,609.25,343.94Z" transform="translate(-201.1 -173.72)"/><path class="cls-8" d="M751.68,263.13c-8-3-22.39,25.2-7.72,38.65,2.37,1.5,8.5.94,10.16.47-.33-7.08-6.41-10-5.91-16.58C748.21,280.42,759.41,267.65,751.68,263.13Z" transform="translate(-201.1 -173.72)"/><path class="cls-8" d="M750.29,282.06a6.94,6.94,0,0,1,5.05-.28c2.84,1,9,10.3,9.89,18.16l4.45,5.5-4.95-.05-1.61,4.21-2.5-2.82-2.22,3.44-4.28-8a30.62,30.62,0,0,0-4-9.62,11.21,11.21,0,0,1-2-6.74A4.6,4.6,0,0,1,750.29,282.06Z" transform="translate(-201.1 -173.72)"/><path class="cls-9" d="M621.34 340.18c-1.44 1.69-2.89 3.81-3.09 5.67M630.75 340a63.4 63.4 0 0 0-6.42 9.42M637.42 343.42s-3.42 6.83-7.34 9.91M643.42 347.67s-1.17 7.16-6.92 10.16M652.83 354.39a36 36 0 0 1-11.58 6.44M659.58 358.92a16.11 16.11 0 0 1-9.25 7.16M671.25 362.5s-.92 6.08-8.58 9.67M681.42 365s1.16 5.83-6.67 11.5M695.08 364.08s-.41 7.67-4.66 13.17M704.67 361.67a29.38 29.38 0 0 1-2.42 13.66M716.65 353.07s2.35 8.1.43 15.1M724.64 344.34s4.53 7 3.94 14.08M730.09 336.18s5.75 4.4 6.42 11.74M735.44 326.39s6.35 2.82 9 8.68M739.43 316s7.29 1.56 10.42 7.31M742.26 307.53s7.72 1.31 10 6.06M749.6 292.5a21.47 21.47 0 0 0-5.16 8.67M747.52 286.92s-5.5.5-9.17 3.91M738.35 280.58s6.5-2.41 11.67-2.33M741.77 272.08A50.18 50.18 0 0 1 754.34 269M756.72 283a42.78 42.78 0 0 1-8.2 5.88M759.94 287.92s-5.25 3.91-9.92 5.33M764 295.33s-6.45 2.59-9.7 4.42M765.69 299.75A43.85 43.85 0 0 1 755 304" transform="translate(-201.1 -173.72)"/></g></svg>
